<?xml version="1.0" encoding="UTF-8" standalone="no"?>
<svg xmlns="http://www.w3.org/2000/svg" xmlns:xlink="http://www.w3.org/1999/xlink" data-v-0dd9719b="" version="1.0" width="100%" height="100%" viewBox="0 0 340.000000 250.000000" preserveAspectRatio="xMidYMid meet" color-interpolation-filters="sRGB" style="margin: auto;">
	<g data-v-0dd9719b="" class="iconmbgsvg" transform="translate(91.73500061035156,66.63926315307617)">
		<g fill="#ac2929" hollow-target="textRect">
			<g transform="translate(19.514999389648438,0)" mask="url(#6b8aeeb5-783e-49a9-bd00-fdd57b229a54)">
				<g>
					<rect fill="#ac2929" fill-opacity="0" stroke-width="2" x="0" y="0" width="117.5" height="116.72146780970925" class="image-rect"/>
					<svg filter="url(#colors7829510180)" x="0" y="0" width="117.5" height="116.72146780970925" filtersec="colorsf5130958057" class="image-svg-svg primary" style="overflow: visible;">
						<svg xmlns="http://www.w3.org/2000/svg" xmlns:xlink="http://www.w3.org/1999/xlink" version="1.1" x="0px" y="0px" viewBox="4.99923038482666 5.306106090545654 89.9979019165039 89.40189361572266" xml:space="preserve">
							<path d="M50,74.533c13.527,0,24.533-11.005,24.533-24.533S63.527,25.467,50,25.467S25.467,36.473,25.467,50S36.473,74.533,50,74.533  z M50,29.467c11.322,0,20.533,9.211,20.533,20.533S61.322,70.533,50,70.533S29.467,61.322,29.467,50S38.678,29.467,50,29.467z"/>
							<path d="M5.024,56.511l0.288,1.79c0.051,0.275,0.104,0.464,0.104,0.464c0.675,2.593,1.491,4.392,2.604,5.778  c0.599,0.801,1.252,1.527,1.958,2.172c0.644,0.577,1.395,1.084,2.353,1.59c2.21,1.188,4.71,1.502,7.072,0.919  c1.454,2.311,3.157,4.443,5.086,6.367l-4.522,5.235c-0.716,0.83-0.632,2.082,0.19,2.807l0.778,0.688  c0.037,0.032,0.074,0.063,0.113,0.093l0.833,0.635c0.861,0.652,1.769,1.231,2.771,1.757c0.854,0.407,1.812,0.746,2.885,1.023  c1.797,0.505,3.845,0.545,5.772,0.146c1.75-0.339,3.387-1.167,4.733-2.394c0.373-0.338,0.722-0.712,1.043-1.12  c2.667,0.843,5.433,1.369,8.256,1.573l-0.091,6.625c-0.014,1.046,0.787,1.928,1.83,2.02c0,0,0.331,0.029,0.759,0.029  c0.186,0,0.39-0.005,0.536-0.017l1.044-0.044c1.079-0.05,2.145-0.186,3.168-0.404c0.038-0.008,0.076-0.017,0.113-0.027  c0.954-0.262,1.924-0.628,2.838-1.068c2.168-0.976,3.665-2.509,4.552-3.64c0.625-0.813,1.063-1.548,1.383-2.324  c0.333-0.819,0.56-1.663,0.674-2.508c0.064-0.473,0.091-0.958,0.08-1.452c2.597-1.113,5.046-2.521,7.312-4.207l4.222,5.17  c0.651,0.796,1.823,0.954,2.678,0.386c0,0,0.196-0.13,0.457-0.363l1.29-1.157c3.184-2.772,5.068-6.915,4.917-10.835  c-0.126-2.459-1.039-4.676-2.607-6.392c1.207-2.476,2.123-5.082,2.734-7.782l6.91,1.31c0.533,0.102,1.083-0.018,1.525-0.331  c0.443-0.313,0.74-0.791,0.823-1.326l0.323-2.075c0.081-0.542,0.139-1.08,0.176-1.642c0.029-0.558-0.01-1.075-0.045-1.531  l-0.013-0.168c-0.091-1.033-0.266-2.043-0.533-3.05c-0.527-1.803-1.475-3.528-2.792-5.046c-1.805-1.93-4.133-3.075-6.626-3.276  c-0.665-2.565-1.612-5.046-2.829-7.411l6.583-3.687c0.472-0.265,0.817-0.71,0.956-1.233c0.138-0.523,0.059-1.081-0.221-1.544  l-1.085-1.799c-0.287-0.467-0.587-0.917-0.957-1.42c-0.359-0.446-0.734-0.841-1.097-1.211c-0.731-0.735-1.511-1.4-2.32-1.976  c-0.031-0.022-0.063-0.043-0.095-0.063c-1.72-1.082-3.554-1.785-5.368-2.043c-2.874-0.315-5.495,0.409-7.565,2.063  c-2.094-1.499-4.325-2.763-6.666-3.775l2.819-7.419c0.19-0.501,0.172-1.057-0.052-1.544c-0.223-0.487-0.633-0.864-1.137-1.046  l-1.957-0.709c-1.144-0.42-2.271-0.562-3.357-0.697c-1.055-0.092-2.31-0.142-3.136-0.001c-0.991,0.133-1.946,0.351-2.819,0.64  c-1.008,0.322-1.872,0.738-2.601,1.243c-2.484,1.627-4.049,3.954-4.529,6.677c-2.525,0.169-5.013,0.6-7.433,1.287l-2.658-7.632  c-0.176-0.507-0.549-0.921-1.035-1.151c-0.484-0.229-1.042-0.254-1.545-0.068l-1.913,0.706c-1.104,0.375-2.011,0.958-2.812,1.472  L29.994,8.67c-0.025,0.016-0.1,0.068-0.124,0.085c-0.821,0.58-1.67,1.178-2.36,1.983c-0.673,0.738-1.266,1.518-1.759,2.317  c-0.249,0.402-0.474,0.813-0.706,1.296c-0.175,0.405-0.331,0.834-0.477,1.318c-0.535,1.783-0.629,3.527-0.277,5.203  c0.208,0.947,0.559,1.857,1.047,2.72c-1.865,1.741-3.535,3.668-4.992,5.756l-6.754-4.034c-0.941-0.561-2.157-0.262-2.73,0.672  c-0.602,0.981-0.97,1.582-1.169,2.03c-1.113,2.315-1.655,4.262-1.701,6.058c-0.059,0.995-0.027,1.97,0.103,2.968  c0.145,0.88,0.41,1.792,0.778,2.687c0.996,2.512,2.885,4.434,5.315,5.466c-0.216,1.608-0.326,3.218-0.326,4.805  c0,1,0.044,2.019,0.133,3.047l-7.312,1.177C5.594,54.399,4.852,55.422,5.024,56.511z M16.511,56.693  c1.073-0.173,1.812-1.171,1.663-2.249c-0.208-1.503-0.313-2.999-0.313-4.445c0-1.917,0.18-3.875,0.536-5.819  c0.193-1.057-0.483-2.078-1.531-2.312c-2.011-0.45-3.529-1.733-4.285-3.638c-0.263-0.639-0.445-1.259-0.531-1.771  c-0.088-0.682-0.11-1.405-0.063-2.216c0.033-1.268,0.444-2.686,1.292-4.457l6.66,3.977c0.936,0.559,2.15,0.265,2.726-0.664  c1.788-2.885,4.012-5.461,6.613-7.658c0.838-0.709,0.949-1.961,0.248-2.806c-0.677-0.815-1.124-1.697-1.323-2.605  c-0.209-0.997-0.143-2.078,0.196-3.208c0.101-0.332,0.205-0.621,0.284-0.808c0.139-0.287,0.296-0.573,0.472-0.857  c0.364-0.588,0.805-1.168,1.352-1.769c0.407-0.474,0.993-0.887,1.646-1.351l0.167-0.107c0.666-0.428,1.295-0.832,1.983-1.067  l0.05-0.019l2.626,7.54c0.362,1.041,1.499,1.593,2.541,1.233c3.181-1.097,6.515-1.683,9.91-1.743  c1.098-0.019,1.976-0.921,1.965-2.02c-0.022-2.177,0.973-3.987,2.919-5.262c0.441-0.305,0.96-0.551,1.604-0.757  c0.658-0.218,1.369-0.378,2.182-0.489c0.559-0.095,1.381-0.039,2.129,0.024c0.858,0.108,1.669,0.21,2.394,0.477l0.055,0.02  l-2.796,7.358c-0.19,0.5-0.172,1.055,0.05,1.541c0.222,0.486,0.629,0.864,1.131,1.048c3.171,1.163,6.144,2.83,8.835,4.956  c0.837,0.663,2.047,0.549,2.748-0.256c1.193-1.37,2.742-2.064,4.604-2.064c0.282,0,0.57,0.016,0.799,0.04  c1.182,0.168,2.457,0.663,3.691,1.431c0.607,0.436,1.197,0.941,1.745,1.492c0.281,0.287,0.576,0.596,0.77,0.834  c0.251,0.345,0.493,0.705,0.714,1.066l0.011,0.018l-6.514,3.648c-0.469,0.263-0.813,0.704-0.953,1.223  c-0.14,0.519-0.066,1.073,0.207,1.536c1.759,2.991,3.012,6.218,3.723,9.591c0.21,0.995,1.131,1.675,2.148,1.578  c1.902-0.185,3.708,0.528,5.045,1.956c0.622,0.718,1.461,1.907,1.911,3.443c0.195,0.738,0.331,1.521,0.399,2.301l0.011,0.148  c0.028,0.369,0.055,0.717,0.041,0.988c-0.028,0.425-0.075,0.856-0.138,1.277l-0.003,0.02l-6.83-1.294  c-0.528-0.101-1.074,0.016-1.516,0.324c-0.441,0.307-0.74,0.779-0.829,1.309c-0.589,3.498-1.738,6.837-3.414,9.925  c-0.467,0.86-0.243,1.931,0.529,2.532c1.415,1.102,2.214,2.688,2.311,4.562c0.082,2.125-0.804,5.243-3.56,7.65l-4.151-5.083  c-0.338-0.414-0.827-0.675-1.358-0.726c-0.531-0.053-1.062,0.113-1.472,0.455c-2.75,2.292-5.84,4.098-9.186,5.366  c-0.903,0.342-1.433,1.281-1.259,2.23c0.121,0.661,0.142,1.265,0.063,1.849c-0.069,0.513-0.209,1.03-0.411,1.527  c-0.179,0.432-0.45,0.878-0.841,1.388c-0.598,0.761-1.609,1.804-3.08,2.466c-0.724,0.348-1.449,0.625-2.154,0.822  c-0.783,0.164-1.599,0.267-2.419,0.306l0.089-6.498c0.015-1.101-0.863-2.007-1.963-2.027c-3.607-0.066-7.12-0.715-10.441-1.929  c-0.226-0.083-0.458-0.122-0.687-0.122c-0.71,0-1.39,0.38-1.75,1.033c-0.336,0.607-0.719,1.102-1.175,1.516  c-0.794,0.724-1.79,1.23-2.829,1.431c-1.356,0.281-2.687,0.266-3.943-0.086c-0.864-0.224-1.585-0.476-2.135-0.736  c-0.726-0.382-1.437-0.834-2.11-1.342l4.431-5.13c0.713-0.826,0.633-2.07-0.18-2.798c-2.615-2.339-4.821-5.075-6.556-8.134  c-0.507-0.895-1.611-1.257-2.551-0.841c-1.71,0.76-3.58,0.697-5.268-0.209c-0.673-0.355-1.17-0.686-1.548-1.024  c-0.506-0.463-0.99-1.002-1.481-1.657c-0.757-0.944-1.351-2.285-1.87-4.242L16.511,56.693z"/>
						</svg>
					</svg>
					<defs>
						<filter id="colors7829510180">
							<feColorMatrix type="matrix" values="0 0 0 0 0.078125  0 0 0 0 0.26953125  0 0 0 0 0.47265625  0 0 0 1 0" class="icon-fecolormatrix"/>
						</filter>
						<filter id="colorsf5130958057">
							<feColorMatrix type="matrix" values="0 0 0 0 0.99609375  0 0 0 0 0.99609375  0 0 0 0 0.99609375  0 0 0 1 0" class="icon-fecolormatrix"/>
						</filter>
						<filter id="colorsb8296713378">
							<feColorMatrix type="matrix" values="0 0 0 0 0  0 0 0 0 0  0 0 0 0 0  0 0 0 1 0" class="icon-fecolormatrix"/>
						</filter>
					</defs>
				</g>
			</g>
			<g transform="translate(0,39.40073776245117)">
				<g data-gra="path-name" fill-rule="" class="tp-name">
					<g transform="scale(1)">
						<g>
							<path d="M0 0L7.42-34.92 30.58-34.92 29.7-30.75 18.43-30.75 16.28-20.68 25.68-20.68 24.8-16.45 15.4-16.45 11.88 0 0 0ZM27 0L34.43-34.92 46.36-34.92 39.88-4.62 51.04-4.62 50.11 0 27 0ZM80.19-34.92L83.98 0 71.12 0 70.34-8.74 60.17-8.74 56.27 0 50.93 0 67.16-34.92 80.19-34.92ZM68.69-27.72L61.98-12.76 69.96-12.76 68.69-27.72ZM116.98-24.8L107.86-24.8Q108.02-25.63 108.02-27.06L108.02-27.06Q108.02-27.89 107.91-28.68 107.8-29.48 107.53-30.11 107.25-30.75 106.7-31.1 106.15-31.46 105.27-31.46L105.27-31.46Q104.28-31.46 103.45-31.02 102.63-30.58 102-29.89 101.37-29.21 101.01-28.3 100.65-27.39 100.65-26.4L100.65-26.4Q100.65-24.97 101.39-24.2 102.14-23.43 103.34-22.93 104.56-22.44 106.09-22.11 107.64-21.78 109.28-21.34L109.28-21.34Q110.66-20.96 112.03-20.35 113.41-19.75 114.48-18.73 115.56-17.71 116.22-16.09 116.88-14.46 116.88-12.04L116.88-12.04Q116.88-8.58 115.5-6.21 114.13-3.85 111.7-2.37 109.28-0.88 105.96-0.22 102.63 0.44 98.73 0.44L98.73 0.44Q94.77 0.44 92.26-0.08 89.76-0.6 88.33-1.21L88.33-1.21Q86.63-1.93 85.8-2.86L85.8-2.86 87.67-10.39 97.35-10.39Q97.3-9.9 97.24-9.05 97.19-8.2 97.19-7.7L97.19-7.7Q97.19-7.04 97.35-6.33 97.52-5.61 97.87-5 98.23-4.4 98.89-4.01 99.55-3.63 100.54-3.63L100.54-3.63Q101.64-3.63 102.49-4.13 103.34-4.62 103.92-5.36 104.5-6.11 104.8-7.01 105.11-7.92 105.11-8.8L105.11-8.8Q105.11-10.01 104.53-10.84 103.95-11.66 102.96-12.24 101.97-12.81 100.68-13.23 99.39-13.64 98.01-14.08L98.01-14.08Q96.69-14.46 95.23-15.02 93.78-15.56 92.56-16.55 91.36-17.55 90.56-19.06 89.76-20.57 89.76-22.93L89.76-22.93Q89.76-26.46 91.55-28.85 93.34-31.24 96.06-32.73 98.78-34.21 102.03-34.84 105.27-35.48 108.19-35.48L108.19-35.48Q112.03-35.48 114.81-34.57 117.59-33.66 119.02-32.45L119.02-32.45 116.98-24.8ZM156.53-34.92L149 0 137.12 0 140.41-15.56 133.65-15.56 130.35 0 118.47 0 125.89-34.92 137.83-34.92 134.59-19.75 141.29-19.75 144.54-34.92 156.53-34.92Z" transform="translate(0, 35.47999954223633)"/>
						</g>
					</g>
				</g>
			</g>
		</g>
	</g>
	<mask id="6b8aeeb5-783e-49a9-bd00-fdd57b229a54">
		<g fill="white">
			<g>
				<rect fill-opacity="1" stroke-width="2" x="0" y="0" width="117.5" height="116.72146780970925" class="image-rect"/>
				<svg x="0" y="0" width="117.5" height="116.72146780970925" class="image-svg-svg primary" style="overflow: visible;" filter="url(#colorsf5130958057)">
					<svg xmlns="http://www.w3.org/2000/svg" xmlns:xlink="http://www.w3.org/1999/xlink" version="1.1" x="0px" y="0px" viewBox="4.99923038482666 5.306106090545654 89.9979019165039 89.40189361572266" xml:space="preserve">
						<path d="M50,74.533c13.527,0,24.533-11.005,24.533-24.533S63.527,25.467,50,25.467S25.467,36.473,25.467,50S36.473,74.533,50,74.533  z M50,29.467c11.322,0,20.533,9.211,20.533,20.533S61.322,70.533,50,70.533S29.467,61.322,29.467,50S38.678,29.467,50,29.467z"/>
						<path d="M5.024,56.511l0.288,1.79c0.051,0.275,0.104,0.464,0.104,0.464c0.675,2.593,1.491,4.392,2.604,5.778  c0.599,0.801,1.252,1.527,1.958,2.172c0.644,0.577,1.395,1.084,2.353,1.59c2.21,1.188,4.71,1.502,7.072,0.919  c1.454,2.311,3.157,4.443,5.086,6.367l-4.522,5.235c-0.716,0.83-0.632,2.082,0.19,2.807l0.778,0.688  c0.037,0.032,0.074,0.063,0.113,0.093l0.833,0.635c0.861,0.652,1.769,1.231,2.771,1.757c0.854,0.407,1.812,0.746,2.885,1.023  c1.797,0.505,3.845,0.545,5.772,0.146c1.75-0.339,3.387-1.167,4.733-2.394c0.373-0.338,0.722-0.712,1.043-1.12  c2.667,0.843,5.433,1.369,8.256,1.573l-0.091,6.625c-0.014,1.046,0.787,1.928,1.83,2.02c0,0,0.331,0.029,0.759,0.029  c0.186,0,0.39-0.005,0.536-0.017l1.044-0.044c1.079-0.05,2.145-0.186,3.168-0.404c0.038-0.008,0.076-0.017,0.113-0.027  c0.954-0.262,1.924-0.628,2.838-1.068c2.168-0.976,3.665-2.509,4.552-3.64c0.625-0.813,1.063-1.548,1.383-2.324  c0.333-0.819,0.56-1.663,0.674-2.508c0.064-0.473,0.091-0.958,0.08-1.452c2.597-1.113,5.046-2.521,7.312-4.207l4.222,5.17  c0.651,0.796,1.823,0.954,2.678,0.386c0,0,0.196-0.13,0.457-0.363l1.29-1.157c3.184-2.772,5.068-6.915,4.917-10.835  c-0.126-2.459-1.039-4.676-2.607-6.392c1.207-2.476,2.123-5.082,2.734-7.782l6.91,1.31c0.533,0.102,1.083-0.018,1.525-0.331  c0.443-0.313,0.74-0.791,0.823-1.326l0.323-2.075c0.081-0.542,0.139-1.08,0.176-1.642c0.029-0.558-0.01-1.075-0.045-1.531  l-0.013-0.168c-0.091-1.033-0.266-2.043-0.533-3.05c-0.527-1.803-1.475-3.528-2.792-5.046c-1.805-1.93-4.133-3.075-6.626-3.276  c-0.665-2.565-1.612-5.046-2.829-7.411l6.583-3.687c0.472-0.265,0.817-0.71,0.956-1.233c0.138-0.523,0.059-1.081-0.221-1.544  l-1.085-1.799c-0.287-0.467-0.587-0.917-0.957-1.42c-0.359-0.446-0.734-0.841-1.097-1.211c-0.731-0.735-1.511-1.4-2.32-1.976  c-0.031-0.022-0.063-0.043-0.095-0.063c-1.72-1.082-3.554-1.785-5.368-2.043c-2.874-0.315-5.495,0.409-7.565,2.063  c-2.094-1.499-4.325-2.763-6.666-3.775l2.819-7.419c0.19-0.501,0.172-1.057-0.052-1.544c-0.223-0.487-0.633-0.864-1.137-1.046  l-1.957-0.709c-1.144-0.42-2.271-0.562-3.357-0.697c-1.055-0.092-2.31-0.142-3.136-0.001c-0.991,0.133-1.946,0.351-2.819,0.64  c-1.008,0.322-1.872,0.738-2.601,1.243c-2.484,1.627-4.049,3.954-4.529,6.677c-2.525,0.169-5.013,0.6-7.433,1.287l-2.658-7.632  c-0.176-0.507-0.549-0.921-1.035-1.151c-0.484-0.229-1.042-0.254-1.545-0.068l-1.913,0.706c-1.104,0.375-2.011,0.958-2.812,1.472  L29.994,8.67c-0.025,0.016-0.1,0.068-0.124,0.085c-0.821,0.58-1.67,1.178-2.36,1.983c-0.673,0.738-1.266,1.518-1.759,2.317  c-0.249,0.402-0.474,0.813-0.706,1.296c-0.175,0.405-0.331,0.834-0.477,1.318c-0.535,1.783-0.629,3.527-0.277,5.203  c0.208,0.947,0.559,1.857,1.047,2.72c-1.865,1.741-3.535,3.668-4.992,5.756l-6.754-4.034c-0.941-0.561-2.157-0.262-2.73,0.672  c-0.602,0.981-0.97,1.582-1.169,2.03c-1.113,2.315-1.655,4.262-1.701,6.058c-0.059,0.995-0.027,1.97,0.103,2.968  c0.145,0.88,0.41,1.792,0.778,2.687c0.996,2.512,2.885,4.434,5.315,5.466c-0.216,1.608-0.326,3.218-0.326,4.805  c0,1,0.044,2.019,0.133,3.047l-7.312,1.177C5.594,54.399,4.852,55.422,5.024,56.511z M16.511,56.693  c1.073-0.173,1.812-1.171,1.663-2.249c-0.208-1.503-0.313-2.999-0.313-4.445c0-1.917,0.18-3.875,0.536-5.819  c0.193-1.057-0.483-2.078-1.531-2.312c-2.011-0.45-3.529-1.733-4.285-3.638c-0.263-0.639-0.445-1.259-0.531-1.771  c-0.088-0.682-0.11-1.405-0.063-2.216c0.033-1.268,0.444-2.686,1.292-4.457l6.66,3.977c0.936,0.559,2.15,0.265,2.726-0.664  c1.788-2.885,4.012-5.461,6.613-7.658c0.838-0.709,0.949-1.961,0.248-2.806c-0.677-0.815-1.124-1.697-1.323-2.605  c-0.209-0.997-0.143-2.078,0.196-3.208c0.101-0.332,0.205-0.621,0.284-0.808c0.139-0.287,0.296-0.573,0.472-0.857  c0.364-0.588,0.805-1.168,1.352-1.769c0.407-0.474,0.993-0.887,1.646-1.351l0.167-0.107c0.666-0.428,1.295-0.832,1.983-1.067  l0.05-0.019l2.626,7.54c0.362,1.041,1.499,1.593,2.541,1.233c3.181-1.097,6.515-1.683,9.91-1.743  c1.098-0.019,1.976-0.921,1.965-2.02c-0.022-2.177,0.973-3.987,2.919-5.262c0.441-0.305,0.96-0.551,1.604-0.757  c0.658-0.218,1.369-0.378,2.182-0.489c0.559-0.095,1.381-0.039,2.129,0.024c0.858,0.108,1.669,0.21,2.394,0.477l0.055,0.02  l-2.796,7.358c-0.19,0.5-0.172,1.055,0.05,1.541c0.222,0.486,0.629,0.864,1.131,1.048c3.171,1.163,6.144,2.83,8.835,4.956  c0.837,0.663,2.047,0.549,2.748-0.256c1.193-1.37,2.742-2.064,4.604-2.064c0.282,0,0.57,0.016,0.799,0.04  c1.182,0.168,2.457,0.663,3.691,1.431c0.607,0.436,1.197,0.941,1.745,1.492c0.281,0.287,0.576,0.596,0.77,0.834  c0.251,0.345,0.493,0.705,0.714,1.066l0.011,0.018l-6.514,3.648c-0.469,0.263-0.813,0.704-0.953,1.223  c-0.14,0.519-0.066,1.073,0.207,1.536c1.759,2.991,3.012,6.218,3.723,9.591c0.21,0.995,1.131,1.675,2.148,1.578  c1.902-0.185,3.708,0.528,5.045,1.956c0.622,0.718,1.461,1.907,1.911,3.443c0.195,0.738,0.331,1.521,0.399,2.301l0.011,0.148  c0.028,0.369,0.055,0.717,0.041,0.988c-0.028,0.425-0.075,0.856-0.138,1.277l-0.003,0.02l-6.83-1.294  c-0.528-0.101-1.074,0.016-1.516,0.324c-0.441,0.307-0.74,0.779-0.829,1.309c-0.589,3.498-1.738,6.837-3.414,9.925  c-0.467,0.86-0.243,1.931,0.529,2.532c1.415,1.102,2.214,2.688,2.311,4.562c0.082,2.125-0.804,5.243-3.56,7.65l-4.151-5.083  c-0.338-0.414-0.827-0.675-1.358-0.726c-0.531-0.053-1.062,0.113-1.472,0.455c-2.75,2.292-5.84,4.098-9.186,5.366  c-0.903,0.342-1.433,1.281-1.259,2.23c0.121,0.661,0.142,1.265,0.063,1.849c-0.069,0.513-0.209,1.03-0.411,1.527  c-0.179,0.432-0.45,0.878-0.841,1.388c-0.598,0.761-1.609,1.804-3.08,2.466c-0.724,0.348-1.449,0.625-2.154,0.822  c-0.783,0.164-1.599,0.267-2.419,0.306l0.089-6.498c0.015-1.101-0.863-2.007-1.963-2.027c-3.607-0.066-7.12-0.715-10.441-1.929  c-0.226-0.083-0.458-0.122-0.687-0.122c-0.71,0-1.39,0.38-1.75,1.033c-0.336,0.607-0.719,1.102-1.175,1.516  c-0.794,0.724-1.79,1.23-2.829,1.431c-1.356,0.281-2.687,0.266-3.943-0.086c-0.864-0.224-1.585-0.476-2.135-0.736  c-0.726-0.382-1.437-0.834-2.11-1.342l4.431-5.13c0.713-0.826,0.633-2.07-0.18-2.798c-2.615-2.339-4.821-5.075-6.556-8.134  c-0.507-0.895-1.611-1.257-2.551-0.841c-1.71,0.76-3.58,0.697-5.268-0.209c-0.673-0.355-1.17-0.686-1.548-1.024  c-0.506-0.463-0.99-1.002-1.481-1.657c-0.757-0.944-1.351-2.285-1.87-4.242L16.511,56.693z"/>
					</svg>
				</svg>
				<defs>  </defs>
			</g>
		</g>
		<g transform="translate(-19.514999389648438,39.40073776245117)">
			<rect fill="black" fill-opacity="1" x="-3.5" y="-3.5" width="163.52999877929688" height="42.91999816894531"/>
			<rect fill="black" fill-opacity="1" x="-3.5" y="-3.5"/>
		</g>
		<g transform="translate(-19.514999389648438,39.40073776245117)" fill="black">
			<g data-gra="path-name" fill-rule="" class="tp-name">
				<g transform="scale(1)">
					<g>
						<path d="M0 0L7.42-34.92 30.58-34.92 29.7-30.75 18.43-30.75 16.28-20.68 25.68-20.68 24.8-16.45 15.4-16.45 11.88 0 0 0ZM27 0L34.43-34.92 46.36-34.92 39.88-4.62 51.04-4.62 50.11 0 27 0ZM80.19-34.92L83.98 0 71.12 0 70.34-8.74 60.17-8.74 56.27 0 50.93 0 67.16-34.92 80.19-34.92ZM68.69-27.72L61.98-12.76 69.96-12.76 68.69-27.72ZM116.98-24.8L107.86-24.8Q108.02-25.63 108.02-27.06L108.02-27.06Q108.02-27.89 107.91-28.68 107.8-29.48 107.53-30.11 107.25-30.75 106.7-31.1 106.15-31.46 105.27-31.46L105.27-31.46Q104.28-31.46 103.45-31.02 102.63-30.58 102-29.89 101.37-29.21 101.01-28.3 100.65-27.39 100.65-26.4L100.65-26.4Q100.65-24.97 101.39-24.2 102.14-23.43 103.34-22.93 104.56-22.44 106.09-22.11 107.64-21.78 109.28-21.34L109.28-21.34Q110.66-20.96 112.03-20.35 113.41-19.75 114.48-18.73 115.56-17.71 116.22-16.09 116.88-14.46 116.88-12.04L116.88-12.04Q116.88-8.58 115.5-6.21 114.13-3.85 111.7-2.37 109.28-0.88 105.96-0.22 102.63 0.44 98.73 0.44L98.73 0.44Q94.77 0.44 92.26-0.08 89.76-0.6 88.33-1.21L88.33-1.21Q86.63-1.93 85.8-2.86L85.8-2.86 87.67-10.39 97.35-10.39Q97.3-9.9 97.24-9.05 97.19-8.2 97.19-7.7L97.19-7.7Q97.19-7.04 97.35-6.33 97.52-5.61 97.87-5 98.23-4.4 98.89-4.01 99.55-3.63 100.54-3.63L100.54-3.63Q101.64-3.63 102.49-4.13 103.34-4.62 103.92-5.36 104.5-6.11 104.8-7.01 105.11-7.92 105.11-8.8L105.11-8.8Q105.11-10.01 104.53-10.84 103.95-11.66 102.96-12.24 101.97-12.81 100.68-13.23 99.39-13.64 98.01-14.08L98.01-14.08Q96.69-14.46 95.23-15.02 93.78-15.56 92.56-16.55 91.36-17.55 90.56-19.06 89.76-20.57 89.76-22.93L89.76-22.93Q89.76-26.46 91.55-28.85 93.34-31.24 96.06-32.73 98.78-34.21 102.03-34.84 105.27-35.48 108.19-35.48L108.19-35.48Q112.03-35.48 114.81-34.57 117.59-33.66 119.02-32.45L119.02-32.45 116.98-24.8ZM156.53-34.92L149 0 137.12 0 140.41-15.56 133.65-15.56 130.35 0 118.47 0 125.89-34.92 137.83-34.92 134.59-19.75 141.29-19.75 144.54-34.92 156.53-34.92Z" transform="translate(0, 35.47999954223633)"/>
					</g>
				</g>
			</g>
		</g>
	</mask>
	<defs v-gra="od"/>
</svg>